<svg id="Layer_1" data-name="Layer 1" xmlns="http://www.w3.org/2000/svg" viewBox="0 0 512 512"><defs><style>.cls-1{fill:#94005c;}</style></defs><circle class="cls-1" cx="256" cy="256" r="256"/><path d="M162.26,114.76a15.44,15.44,0,0,1,15.14,12.51l1,8H448.19c13,0,23.41,13,19.76,26.08L433.31,284.53a20.53,20.53,0,0,1-19.75,15H210.17l5.9,30.78H413.69a15.4,15.4,0,0,1,0,30.79h-211c-6.79,0-13.14-5.26-14.56-12.51l-38.65-203H116.08a15.39,15.39,0,0,1,0-30.78Zm20.53,297.6a30.79,30.79,0,1,1,30.78,30.79A30.79,30.79,0,0,1,182.79,412.36Zm246.29,0a30.79,30.79,0,1,1-30.79-30.79A30.8,30.8,0,0,1,429.08,412.36Z" transform="translate(-28.69)"/></svg>