<svg id="Layer_1" data-name="Layer 1" xmlns="http://www.w3.org/2000/svg" viewBox="0 0 512 512"><defs><style>.cls-1{fill:#c90044;}.cls-2{fill:#fff;}</style></defs><circle class="cls-1" cx="256" cy="256" r="256"/><path class="cls-2" d="M299.76,62C283.39,64,270.23,73.78,262.17,89.87a70.68,70.68,0,0,0-5.27,14.91c-2.45,11.2-.24,24.15,5.86,34.83,3.58,6.27,7.65,10.27,17.53,17.13,6.69,4.65,9.65,7.33,10.79,9.82.69,1.51.75,2.17.75,8.16v6.51l-88,52c-48.4,28.59-88.85,52.5-89.85,53.19a37.77,37.77,0,0,0-9.23,9.48,44,44,0,0,0-6.51,30.38,37.74,37.74,0,0,0,11.57,21.81,41.32,41.32,0,0,0,20.64,10.41c2.75.55,12.81.58,173.12.58,163.16,0,170.33,0,173.81-.62,13.3-2.31,23.53-9.33,29.11-19.91a49.64,49.64,0,0,0,4.1-12.68,61.21,61.21,0,0,0,0-16.23,36.52,36.52,0,0,0-15.3-23.35c-1.27-.9-41.48-24.88-89.33-53.3L319,181.3l-.14-11c-.17-10.13-.24-11.24-.93-13.61-2.62-8.79-9.09-15.82-19.6-21.26-6.34-3.27-9-5.79-11.48-11-1.89-3.9-2.48-7-2.27-12.06a18.66,18.66,0,0,1,1.17-7.07,25.35,25.35,0,0,1,2.31-4.89,24.23,24.23,0,0,1,12.44-9.13,26.85,26.85,0,0,1,13.74-.17c9.24,2.65,15,9,16.4,18.16,1.24,8.16,2.31,11.09,5.07,13.85,7.13,7.16,19.84,2.44,22.67-8.34,1.58-6.13-.21-15.54-4.65-24.46-5.93-11.89-15.85-21-27.57-25.32A59.71,59.71,0,0,0,299.76,62Zm53.3,174.57c26.39,15.54,64.66,38,85,50,26.15,15.37,37.52,22.22,38.66,23.33a18,18,0,0,1,2.58,3.34c.86,1.58,1,2.06,1,5,0,2.72-.14,3.55-.8,4.85a12.05,12.05,0,0,1-5.3,5.52L472,329.79l-167.61.1c-159.13.07-167.71,0-169.3-.51a14.53,14.53,0,0,1-6.65-6.24c-.82-1.72-1-2.38-1-5.07,0-5.34,1.58-7.37,9.16-11.78,2.35-1.34,40.93-24,85.75-50.37,49.2-28.94,81.72-47.88,82.07-47.78S326.7,221,353.06,236.53Z" transform="translate(-48.42)"/></svg>