<svg id="Layer_1" data-name="Layer 1" xmlns="http://www.w3.org/2000/svg" viewBox="0 0 512 512"><defs><style>.cls-1{fill:#ff4ace;}.cls-2{fill:#fff;}</style></defs><circle class="cls-1" cx="256" cy="256" r="256"/><path class="cls-2" d="M485.88,234.66a22.21,22.21,0,0,1-22,22.07h-22l.48,110.07a48.7,48.7,0,0,1-.35,5.57v11.14a27.49,27.49,0,0,1-27.5,27.5h-11c-.75,0-1.51-.62-2.27-.07-1-.55-1.92.07-2.88.07H359.51a27.5,27.5,0,0,1-27.5-27.5V323a22,22,0,0,0-22-22H266a22,22,0,0,0-22,22v60.51a27.5,27.5,0,0,1-27.5,27.5H178.07c-1,0-2.06-.07-3.09-.14-.83.07-1.65.14-2.48.14h-11a27.5,27.5,0,0,1-27.5-27.5v-77c0-.62,0-1.3.06-1.92V256.73H112a21.8,21.8,0,0,1-22-22.07,22.35,22.35,0,0,1,6.88-16.5L273.16,64.5C278,59.68,283.47,59,288.28,59a23.09,23.09,0,0,1,14.51,4.83L478.32,218.16c5.5,4.81,8.32,10.31,7.56,16.5Z" transform="translate(-32)"/></svg>