<svg id="Layer_1" data-name="Layer 1" xmlns="http://www.w3.org/2000/svg" viewBox="0 0 512 512"><defs><style>.cls-1{fill:#ff766a;}.cls-2{fill:#fff;}</style></defs><circle class="cls-1" cx="256" cy="256" r="256"/><path class="cls-2" d="M512.5,195.37a21.12,21.12,0,0,1-4.75,13.36l-33.88,41.8a21.92,21.92,0,0,1-30.51,3.34l-39.36-31V399.63a32.55,32.55,0,0,1-32.55,32.55H219.55A32.56,32.56,0,0,1,187,399.63V222.84L147.06,253.9c-3.43,3.12-8.21,4.06-13,4.06a21.8,21.8,0,0,1-17-8l-33.87-41.2a21.21,21.21,0,0,1,3.38-30.09l91.55-72.29a49.14,49.14,0,0,1,29.9-10.53h23.4a64.89,64.89,0,0,0,128,0h22.78a49.29,49.29,0,0,1,30.51,10.56l91.55,72.29A21.23,21.23,0,0,1,512.5,195.37Z" transform="translate(-39.5)"/></svg>